<mxfile host="app.diagrams.net" modified="2024-05-07T22:15:10.071Z" agent="Mozilla/5.0 (Windows NT 10.0; Win64; x64) AppleWebKit/537.36 (KHTML, like Gecko) Chrome/124.0.0.0 Safari/537.36" etag="qGU0jvUQ-5r2-CVnfyDZ" version="24.3.1" type="github" pages="2">
  <diagram name="ER다이어그램(개념적모델링)" id="338jlXudHpVySwIE1spO">
    <mxGraphModel dx="1434" dy="907" grid="1" gridSize="10" guides="1" tooltips="1" connect="1" arrows="1" fold="1" page="1" pageScale="1" pageWidth="827" pageHeight="1169" math="0" shadow="0">
      <root>
        <mxCell id="0" />
        <mxCell id="1" parent="0" />
        <mxCell id="u0V897KYy9bcApE3nfHY-1" value="교수" style="whiteSpace=wrap;html=1;align=center;" parent="1" vertex="1">
          <mxGeometry x="220" y="170" width="100" height="40" as="geometry" />
        </mxCell>
        <mxCell id="u0V897KYy9bcApE3nfHY-2" value="학과" style="whiteSpace=wrap;html=1;align=center;" parent="1" vertex="1">
          <mxGeometry x="710" y="170" width="100" height="40" as="geometry" />
        </mxCell>
        <mxCell id="u0V897KYy9bcApE3nfHY-3" value="과목" style="whiteSpace=wrap;html=1;align=center;" parent="1" vertex="1">
          <mxGeometry x="220" y="490" width="100" height="40" as="geometry" />
        </mxCell>
        <mxCell id="u0V897KYy9bcApE3nfHY-4" value="학생" style="whiteSpace=wrap;html=1;align=center;" parent="1" vertex="1">
          <mxGeometry x="710" y="490" width="100" height="40" as="geometry" />
        </mxCell>
        <mxCell id="u0V897KYy9bcApE3nfHY-5" value="교수명" style="ellipse;whiteSpace=wrap;html=1;align=center;" parent="1" vertex="1">
          <mxGeometry x="50" y="230" width="100" height="40" as="geometry" />
        </mxCell>
        <mxCell id="u0V897KYy9bcApE3nfHY-6" value="교수코드" style="ellipse;whiteSpace=wrap;html=1;align=center;fontStyle=4;" parent="1" vertex="1">
          <mxGeometry x="50" y="110" width="100" height="40" as="geometry" />
        </mxCell>
        <mxCell id="u0V897KYy9bcApE3nfHY-9" value="" style="endArrow=none;html=1;rounded=0;exitX=1;exitY=1;exitDx=0;exitDy=0;entryX=0;entryY=0.5;entryDx=0;entryDy=0;" parent="1" source="u0V897KYy9bcApE3nfHY-6" target="u0V897KYy9bcApE3nfHY-1" edge="1">
          <mxGeometry relative="1" as="geometry">
            <mxPoint x="334" y="270" as="sourcePoint" />
            <mxPoint x="494" y="270" as="targetPoint" />
          </mxGeometry>
        </mxCell>
        <mxCell id="u0V897KYy9bcApE3nfHY-16" value="" style="endArrow=none;html=1;rounded=0;exitX=1;exitY=0;exitDx=0;exitDy=0;entryX=0;entryY=0.5;entryDx=0;entryDy=0;" parent="1" source="u0V897KYy9bcApE3nfHY-5" target="u0V897KYy9bcApE3nfHY-1" edge="1">
          <mxGeometry relative="1" as="geometry">
            <mxPoint x="530" y="280" as="sourcePoint" />
            <mxPoint x="690" y="280" as="targetPoint" />
          </mxGeometry>
        </mxCell>
        <mxCell id="u0V897KYy9bcApE3nfHY-17" value="과목명" style="ellipse;whiteSpace=wrap;html=1;align=center;" parent="1" vertex="1">
          <mxGeometry x="50" y="550" width="100" height="40" as="geometry" />
        </mxCell>
        <mxCell id="u0V897KYy9bcApE3nfHY-18" value="과목코드" style="ellipse;whiteSpace=wrap;html=1;align=center;fontStyle=4;" parent="1" vertex="1">
          <mxGeometry x="50" y="440" width="100" height="40" as="geometry" />
        </mxCell>
        <mxCell id="u0V897KYy9bcApE3nfHY-20" value="" style="endArrow=none;html=1;rounded=0;exitX=1;exitY=1;exitDx=0;exitDy=0;entryX=0;entryY=0.5;entryDx=0;entryDy=0;" parent="1" source="u0V897KYy9bcApE3nfHY-18" target="u0V897KYy9bcApE3nfHY-3" edge="1">
          <mxGeometry relative="1" as="geometry">
            <mxPoint x="135" y="459.86" as="sourcePoint" />
            <mxPoint x="200" y="505.86" as="targetPoint" />
          </mxGeometry>
        </mxCell>
        <mxCell id="u0V897KYy9bcApE3nfHY-21" value="" style="endArrow=none;html=1;rounded=0;exitX=1;exitY=0;exitDx=0;exitDy=0;entryX=0;entryY=0.5;entryDx=0;entryDy=0;" parent="1" source="u0V897KYy9bcApE3nfHY-17" target="u0V897KYy9bcApE3nfHY-3" edge="1">
          <mxGeometry relative="1" as="geometry">
            <mxPoint x="135" y="551.86" as="sourcePoint" />
            <mxPoint x="200" y="505.86" as="targetPoint" />
          </mxGeometry>
        </mxCell>
        <mxCell id="u0V897KYy9bcApE3nfHY-22" value="종료일" style="ellipse;whiteSpace=wrap;html=1;align=center;" parent="1" vertex="1">
          <mxGeometry x="170" y="580" width="100" height="40" as="geometry" />
        </mxCell>
        <mxCell id="u0V897KYy9bcApE3nfHY-23" value="시작일" style="ellipse;whiteSpace=wrap;html=1;align=center;" parent="1" vertex="1">
          <mxGeometry x="280" y="580" width="100" height="40" as="geometry" />
        </mxCell>
        <mxCell id="u0V897KYy9bcApE3nfHY-24" value="" style="endArrow=none;html=1;rounded=0;exitX=0.5;exitY=0;exitDx=0;exitDy=0;entryX=0.5;entryY=1;entryDx=0;entryDy=0;" parent="1" source="u0V897KYy9bcApE3nfHY-22" target="u0V897KYy9bcApE3nfHY-3" edge="1">
          <mxGeometry relative="1" as="geometry">
            <mxPoint x="199.64" y="580.14" as="sourcePoint" />
            <mxPoint x="264.64" y="530" as="targetPoint" />
          </mxGeometry>
        </mxCell>
        <mxCell id="u0V897KYy9bcApE3nfHY-25" value="" style="endArrow=none;html=1;rounded=0;exitX=0.5;exitY=0;exitDx=0;exitDy=0;entryX=0.5;entryY=1;entryDx=0;entryDy=0;" parent="1" source="u0V897KYy9bcApE3nfHY-23" target="u0V897KYy9bcApE3nfHY-3" edge="1">
          <mxGeometry relative="1" as="geometry">
            <mxPoint x="330" y="580" as="sourcePoint" />
            <mxPoint x="260" y="520" as="targetPoint" />
          </mxGeometry>
        </mxCell>
        <mxCell id="u0V897KYy9bcApE3nfHY-26" value="키" style="ellipse;whiteSpace=wrap;html=1;align=center;" parent="1" vertex="1">
          <mxGeometry x="870" y="480" width="100" height="40" as="geometry" />
        </mxCell>
        <mxCell id="u0V897KYy9bcApE3nfHY-29" value="이름" style="ellipse;whiteSpace=wrap;html=1;align=center;" parent="1" vertex="1">
          <mxGeometry x="840" y="410" width="100" height="40" as="geometry" />
        </mxCell>
        <mxCell id="u0V897KYy9bcApE3nfHY-30" value="학번" style="ellipse;whiteSpace=wrap;html=1;align=center;fontStyle=4;" parent="1" vertex="1">
          <mxGeometry x="830" y="560" width="100" height="40" as="geometry" />
        </mxCell>
        <mxCell id="u0V897KYy9bcApE3nfHY-31" value="학과코드" style="ellipse;whiteSpace=wrap;html=1;align=center;fontStyle=4;" parent="1" vertex="1">
          <mxGeometry x="820" y="100" width="100" height="40" as="geometry" />
        </mxCell>
        <mxCell id="u0V897KYy9bcApE3nfHY-32" value="학과명" style="ellipse;whiteSpace=wrap;html=1;align=center;" parent="1" vertex="1">
          <mxGeometry x="830" y="240" width="100" height="40" as="geometry" />
        </mxCell>
        <mxCell id="u0V897KYy9bcApE3nfHY-33" value="" style="endArrow=none;html=1;rounded=0;exitX=0.31;exitY=1;exitDx=0;exitDy=0;entryX=1;entryY=0.5;entryDx=0;entryDy=0;exitPerimeter=0;" parent="1" source="u0V897KYy9bcApE3nfHY-31" target="u0V897KYy9bcApE3nfHY-2" edge="1">
          <mxGeometry relative="1" as="geometry">
            <mxPoint x="699.64" y="139.86" as="sourcePoint" />
            <mxPoint x="750" y="180" as="targetPoint" />
          </mxGeometry>
        </mxCell>
        <mxCell id="u0V897KYy9bcApE3nfHY-34" value="" style="endArrow=none;html=1;rounded=0;exitX=0.32;exitY=-0.025;exitDx=0;exitDy=0;entryX=1;entryY=0.5;entryDx=0;entryDy=0;exitPerimeter=0;" parent="1" source="u0V897KYy9bcApE3nfHY-32" target="u0V897KYy9bcApE3nfHY-2" edge="1">
          <mxGeometry relative="1" as="geometry">
            <mxPoint x="790" y="139.86" as="sourcePoint" />
            <mxPoint x="840.36" y="180" as="targetPoint" />
          </mxGeometry>
        </mxCell>
        <mxCell id="u0V897KYy9bcApE3nfHY-35" value="" style="endArrow=none;html=1;rounded=0;exitX=0.32;exitY=0.975;exitDx=0;exitDy=0;entryX=1;entryY=0.25;entryDx=0;entryDy=0;exitPerimeter=0;" parent="1" source="u0V897KYy9bcApE3nfHY-29" target="u0V897KYy9bcApE3nfHY-4" edge="1">
          <mxGeometry relative="1" as="geometry">
            <mxPoint x="870" y="439" as="sourcePoint" />
            <mxPoint x="830" y="500" as="targetPoint" />
          </mxGeometry>
        </mxCell>
        <mxCell id="u0V897KYy9bcApE3nfHY-36" value="" style="endArrow=none;html=1;rounded=0;exitX=0;exitY=0.5;exitDx=0;exitDy=0;entryX=1;entryY=0.5;entryDx=0;entryDy=0;" parent="1" source="u0V897KYy9bcApE3nfHY-26" target="u0V897KYy9bcApE3nfHY-4" edge="1">
          <mxGeometry relative="1" as="geometry">
            <mxPoint x="872" y="519" as="sourcePoint" />
            <mxPoint x="830" y="510" as="targetPoint" />
          </mxGeometry>
        </mxCell>
        <mxCell id="u0V897KYy9bcApE3nfHY-37" value="" style="endArrow=none;html=1;rounded=0;exitX=0.3;exitY=0;exitDx=0;exitDy=0;entryX=1;entryY=0.75;entryDx=0;entryDy=0;exitPerimeter=0;" parent="1" source="u0V897KYy9bcApE3nfHY-30" target="u0V897KYy9bcApE3nfHY-4" edge="1">
          <mxGeometry relative="1" as="geometry">
            <mxPoint x="872" y="510" as="sourcePoint" />
            <mxPoint x="830" y="520" as="targetPoint" />
          </mxGeometry>
        </mxCell>
        <mxCell id="u0V897KYy9bcApE3nfHY-39" value="소속" style="shape=rhombus;perimeter=rhombusPerimeter;whiteSpace=wrap;html=1;align=center;" parent="1" vertex="1">
          <mxGeometry x="440" y="160" width="120" height="60" as="geometry" />
        </mxCell>
        <mxCell id="u0V897KYy9bcApE3nfHY-41" value="강의" style="shape=rhombus;perimeter=rhombusPerimeter;whiteSpace=wrap;html=1;align=center;" parent="1" vertex="1">
          <mxGeometry x="210" y="310" width="120" height="60" as="geometry" />
        </mxCell>
        <mxCell id="u0V897KYy9bcApE3nfHY-42" value="소속" style="shape=rhombus;perimeter=rhombusPerimeter;whiteSpace=wrap;html=1;align=center;" parent="1" vertex="1">
          <mxGeometry x="700" y="310" width="120" height="60" as="geometry" />
        </mxCell>
        <mxCell id="u0V897KYy9bcApE3nfHY-43" value="수강" style="shape=rhombus;perimeter=rhombusPerimeter;whiteSpace=wrap;html=1;align=center;" parent="1" vertex="1">
          <mxGeometry x="450" y="480" width="120" height="60" as="geometry" />
        </mxCell>
        <mxCell id="u0V897KYy9bcApE3nfHY-45" value="" style="endArrow=none;html=1;rounded=0;exitX=1;exitY=0.5;exitDx=0;exitDy=0;entryX=0;entryY=0.5;entryDx=0;entryDy=0;" parent="1" source="u0V897KYy9bcApE3nfHY-1" target="u0V897KYy9bcApE3nfHY-39" edge="1">
          <mxGeometry relative="1" as="geometry">
            <mxPoint x="319.64" y="186" as="sourcePoint" />
            <mxPoint x="404.64" y="140" as="targetPoint" />
          </mxGeometry>
        </mxCell>
        <mxCell id="u0V897KYy9bcApE3nfHY-60" value="N" style="edgeLabel;html=1;align=center;verticalAlign=middle;resizable=0;points=[];" parent="u0V897KYy9bcApE3nfHY-45" vertex="1" connectable="0">
          <mxGeometry x="0.3" relative="1" as="geometry">
            <mxPoint y="-8" as="offset" />
          </mxGeometry>
        </mxCell>
        <mxCell id="u0V897KYy9bcApE3nfHY-47" value="" style="endArrow=none;html=1;rounded=0;entryX=0;entryY=0.5;entryDx=0;entryDy=0;exitX=1;exitY=0.5;exitDx=0;exitDy=0;" parent="1" source="u0V897KYy9bcApE3nfHY-39" target="u0V897KYy9bcApE3nfHY-2" edge="1">
          <mxGeometry relative="1" as="geometry">
            <mxPoint x="590" y="190" as="sourcePoint" />
            <mxPoint x="680" y="190" as="targetPoint" />
          </mxGeometry>
        </mxCell>
        <mxCell id="u0V897KYy9bcApE3nfHY-61" value="1" style="edgeLabel;html=1;align=center;verticalAlign=middle;resizable=0;points=[];" parent="u0V897KYy9bcApE3nfHY-47" vertex="1" connectable="0">
          <mxGeometry x="-0.5467" relative="1" as="geometry">
            <mxPoint y="-9" as="offset" />
          </mxGeometry>
        </mxCell>
        <mxCell id="u0V897KYy9bcApE3nfHY-48" value="" style="endArrow=none;html=1;rounded=0;exitX=0.5;exitY=1;exitDx=0;exitDy=0;entryX=0.5;entryY=0;entryDx=0;entryDy=0;" parent="1" source="u0V897KYy9bcApE3nfHY-1" target="u0V897KYy9bcApE3nfHY-41" edge="1">
          <mxGeometry relative="1" as="geometry">
            <mxPoint x="260" y="240" as="sourcePoint" />
            <mxPoint x="380" y="240" as="targetPoint" />
          </mxGeometry>
        </mxCell>
        <mxCell id="u0V897KYy9bcApE3nfHY-58" value="1" style="edgeLabel;html=1;align=center;verticalAlign=middle;resizable=0;points=[];" parent="u0V897KYy9bcApE3nfHY-48" vertex="1" connectable="0">
          <mxGeometry x="0.68" y="-1" relative="1" as="geometry">
            <mxPoint x="7" as="offset" />
          </mxGeometry>
        </mxCell>
        <mxCell id="u0V897KYy9bcApE3nfHY-50" value="" style="endArrow=none;html=1;rounded=0;exitX=0.5;exitY=1;exitDx=0;exitDy=0;entryX=0.5;entryY=0;entryDx=0;entryDy=0;" parent="1" target="u0V897KYy9bcApE3nfHY-3" edge="1">
          <mxGeometry relative="1" as="geometry">
            <mxPoint x="270" y="370" as="sourcePoint" />
            <mxPoint x="270" y="470" as="targetPoint" />
          </mxGeometry>
        </mxCell>
        <mxCell id="u0V897KYy9bcApE3nfHY-59" value="N" style="edgeLabel;html=1;align=center;verticalAlign=middle;resizable=0;points=[];" parent="u0V897KYy9bcApE3nfHY-50" vertex="1" connectable="0">
          <mxGeometry x="-0.6833" y="3" relative="1" as="geometry">
            <mxPoint x="5" as="offset" />
          </mxGeometry>
        </mxCell>
        <mxCell id="u0V897KYy9bcApE3nfHY-51" value="" style="endArrow=none;html=1;rounded=0;exitX=0.5;exitY=1;exitDx=0;exitDy=0;entryX=0.5;entryY=0;entryDx=0;entryDy=0;" parent="1" edge="1">
          <mxGeometry relative="1" as="geometry">
            <mxPoint x="760" y="370" as="sourcePoint" />
            <mxPoint x="760" y="490" as="targetPoint" />
          </mxGeometry>
        </mxCell>
        <mxCell id="u0V897KYy9bcApE3nfHY-62" value="N" style="edgeLabel;html=1;align=center;verticalAlign=middle;resizable=0;points=[];" parent="u0V897KYy9bcApE3nfHY-51" vertex="1" connectable="0">
          <mxGeometry x="-0.3389" y="3" relative="1" as="geometry">
            <mxPoint x="6" as="offset" />
          </mxGeometry>
        </mxCell>
        <mxCell id="u0V897KYy9bcApE3nfHY-52" value="" style="endArrow=none;html=1;rounded=0;exitX=1;exitY=0.5;exitDx=0;exitDy=0;entryX=0;entryY=0.5;entryDx=0;entryDy=0;" parent="1" target="u0V897KYy9bcApE3nfHY-43" edge="1">
          <mxGeometry relative="1" as="geometry">
            <mxPoint x="320" y="510" as="sourcePoint" />
            <mxPoint x="440" y="510" as="targetPoint" />
          </mxGeometry>
        </mxCell>
        <mxCell id="u0V897KYy9bcApE3nfHY-67" value="N" style="edgeLabel;html=1;align=center;verticalAlign=middle;resizable=0;points=[];" parent="u0V897KYy9bcApE3nfHY-52" vertex="1" connectable="0">
          <mxGeometry x="0.5833" y="3" relative="1" as="geometry">
            <mxPoint x="10" y="-5" as="offset" />
          </mxGeometry>
        </mxCell>
        <mxCell id="u0V897KYy9bcApE3nfHY-53" value="" style="endArrow=none;html=1;rounded=0;entryX=0;entryY=0.5;entryDx=0;entryDy=0;" parent="1" edge="1">
          <mxGeometry relative="1" as="geometry">
            <mxPoint x="570" y="510" as="sourcePoint" />
            <mxPoint x="710" y="510" as="targetPoint" />
          </mxGeometry>
        </mxCell>
        <mxCell id="u0V897KYy9bcApE3nfHY-68" value="M" style="edgeLabel;html=1;align=center;verticalAlign=middle;resizable=0;points=[];" parent="u0V897KYy9bcApE3nfHY-53" vertex="1" connectable="0">
          <mxGeometry x="-0.7444" y="1" relative="1" as="geometry">
            <mxPoint x="10" y="-7" as="offset" />
          </mxGeometry>
        </mxCell>
        <mxCell id="u0V897KYy9bcApE3nfHY-54" value="수강번호" style="ellipse;whiteSpace=wrap;html=1;align=center;fontStyle=4;" parent="1" vertex="1">
          <mxGeometry x="410" y="580" width="100" height="40" as="geometry" />
        </mxCell>
        <mxCell id="u0V897KYy9bcApE3nfHY-55" value="수강일자" style="ellipse;whiteSpace=wrap;html=1;align=center;" parent="1" vertex="1">
          <mxGeometry x="530" y="580" width="100" height="40" as="geometry" />
        </mxCell>
        <mxCell id="u0V897KYy9bcApE3nfHY-56" value="" style="endArrow=none;html=1;rounded=0;entryX=0.5;entryY=0;entryDx=0;entryDy=0;exitX=0.5;exitY=1;exitDx=0;exitDy=0;" parent="1" source="u0V897KYy9bcApE3nfHY-43" target="u0V897KYy9bcApE3nfHY-55" edge="1">
          <mxGeometry relative="1" as="geometry">
            <mxPoint x="520" y="540" as="sourcePoint" />
            <mxPoint x="680" y="540" as="targetPoint" />
          </mxGeometry>
        </mxCell>
        <mxCell id="u0V897KYy9bcApE3nfHY-57" value="" style="endArrow=none;html=1;rounded=0;entryX=0.37;entryY=0.05;entryDx=0;entryDy=0;exitX=0.5;exitY=1;exitDx=0;exitDy=0;entryPerimeter=0;" parent="1" source="u0V897KYy9bcApE3nfHY-43" target="u0V897KYy9bcApE3nfHY-54" edge="1">
          <mxGeometry relative="1" as="geometry">
            <mxPoint x="450" y="540" as="sourcePoint" />
            <mxPoint x="520" y="580" as="targetPoint" />
          </mxGeometry>
        </mxCell>
        <mxCell id="u0V897KYy9bcApE3nfHY-65" value="" style="endArrow=none;html=1;rounded=0;exitX=0.5;exitY=1;exitDx=0;exitDy=0;entryX=0.5;entryY=0;entryDx=0;entryDy=0;" parent="1" edge="1">
          <mxGeometry relative="1" as="geometry">
            <mxPoint x="760" y="210" as="sourcePoint" />
            <mxPoint x="760" y="310" as="targetPoint" />
          </mxGeometry>
        </mxCell>
        <mxCell id="u0V897KYy9bcApE3nfHY-66" value="1" style="edgeLabel;html=1;align=center;verticalAlign=middle;resizable=0;points=[];" parent="u0V897KYy9bcApE3nfHY-65" vertex="1" connectable="0">
          <mxGeometry x="0.68" y="-1" relative="1" as="geometry">
            <mxPoint x="7" as="offset" />
          </mxGeometry>
        </mxCell>
        <mxCell id="5fx2fQ4f3zD13uVU-28t-1" value="학과" style="shape=table;startSize=30;container=1;collapsible=1;childLayout=tableLayout;fixedRows=1;rowLines=0;fontStyle=1;align=center;resizeLast=1;html=1;" vertex="1" parent="1">
          <mxGeometry x="200" y="1000" width="180" height="90" as="geometry" />
        </mxCell>
        <mxCell id="5fx2fQ4f3zD13uVU-28t-2" value="" style="shape=tableRow;horizontal=0;startSize=0;swimlaneHead=0;swimlaneBody=0;fillColor=none;collapsible=0;dropTarget=0;points=[[0,0.5],[1,0.5]];portConstraint=eastwest;top=0;left=0;right=0;bottom=1;" vertex="1" parent="5fx2fQ4f3zD13uVU-28t-1">
          <mxGeometry y="30" width="180" height="30" as="geometry" />
        </mxCell>
        <mxCell id="5fx2fQ4f3zD13uVU-28t-3" value="PK" style="shape=partialRectangle;connectable=0;fillColor=none;top=0;left=0;bottom=0;right=0;fontStyle=1;overflow=hidden;whiteSpace=wrap;html=1;" vertex="1" parent="5fx2fQ4f3zD13uVU-28t-2">
          <mxGeometry width="30" height="30" as="geometry">
            <mxRectangle width="30" height="30" as="alternateBounds" />
          </mxGeometry>
        </mxCell>
        <mxCell id="5fx2fQ4f3zD13uVU-28t-4" value="학과코드" style="shape=partialRectangle;connectable=0;fillColor=none;top=0;left=0;bottom=0;right=0;align=left;spacingLeft=6;fontStyle=5;overflow=hidden;whiteSpace=wrap;html=1;" vertex="1" parent="5fx2fQ4f3zD13uVU-28t-2">
          <mxGeometry x="30" width="150" height="30" as="geometry">
            <mxRectangle width="150" height="30" as="alternateBounds" />
          </mxGeometry>
        </mxCell>
        <mxCell id="5fx2fQ4f3zD13uVU-28t-5" value="" style="shape=tableRow;horizontal=0;startSize=0;swimlaneHead=0;swimlaneBody=0;fillColor=none;collapsible=0;dropTarget=0;points=[[0,0.5],[1,0.5]];portConstraint=eastwest;top=0;left=0;right=0;bottom=0;" vertex="1" parent="5fx2fQ4f3zD13uVU-28t-1">
          <mxGeometry y="60" width="180" height="30" as="geometry" />
        </mxCell>
        <mxCell id="5fx2fQ4f3zD13uVU-28t-6" value="" style="shape=partialRectangle;connectable=0;fillColor=none;top=0;left=0;bottom=0;right=0;editable=1;overflow=hidden;whiteSpace=wrap;html=1;" vertex="1" parent="5fx2fQ4f3zD13uVU-28t-5">
          <mxGeometry width="30" height="30" as="geometry">
            <mxRectangle width="30" height="30" as="alternateBounds" />
          </mxGeometry>
        </mxCell>
        <mxCell id="5fx2fQ4f3zD13uVU-28t-7" value="학과명" style="shape=partialRectangle;connectable=0;fillColor=none;top=0;left=0;bottom=0;right=0;align=left;spacingLeft=6;overflow=hidden;whiteSpace=wrap;html=1;" vertex="1" parent="5fx2fQ4f3zD13uVU-28t-5">
          <mxGeometry x="30" width="150" height="30" as="geometry">
            <mxRectangle width="150" height="30" as="alternateBounds" />
          </mxGeometry>
        </mxCell>
        <mxCell id="5fx2fQ4f3zD13uVU-28t-14" value="과목" style="shape=table;startSize=30;container=1;collapsible=1;childLayout=tableLayout;fixedRows=1;rowLines=0;fontStyle=1;align=center;resizeLast=1;html=1;" vertex="1" parent="1">
          <mxGeometry x="750" y="750" width="180" height="150" as="geometry" />
        </mxCell>
        <mxCell id="5fx2fQ4f3zD13uVU-28t-15" value="" style="shape=tableRow;horizontal=0;startSize=0;swimlaneHead=0;swimlaneBody=0;fillColor=none;collapsible=0;dropTarget=0;points=[[0,0.5],[1,0.5]];portConstraint=eastwest;top=0;left=0;right=0;bottom=1;" vertex="1" parent="5fx2fQ4f3zD13uVU-28t-14">
          <mxGeometry y="30" width="180" height="30" as="geometry" />
        </mxCell>
        <mxCell id="5fx2fQ4f3zD13uVU-28t-16" value="PK" style="shape=partialRectangle;connectable=0;fillColor=none;top=0;left=0;bottom=0;right=0;fontStyle=1;overflow=hidden;whiteSpace=wrap;html=1;" vertex="1" parent="5fx2fQ4f3zD13uVU-28t-15">
          <mxGeometry width="30" height="30" as="geometry">
            <mxRectangle width="30" height="30" as="alternateBounds" />
          </mxGeometry>
        </mxCell>
        <mxCell id="5fx2fQ4f3zD13uVU-28t-17" value="과목코드" style="shape=partialRectangle;connectable=0;fillColor=none;top=0;left=0;bottom=0;right=0;align=left;spacingLeft=6;fontStyle=5;overflow=hidden;whiteSpace=wrap;html=1;" vertex="1" parent="5fx2fQ4f3zD13uVU-28t-15">
          <mxGeometry x="30" width="150" height="30" as="geometry">
            <mxRectangle width="150" height="30" as="alternateBounds" />
          </mxGeometry>
        </mxCell>
        <mxCell id="5fx2fQ4f3zD13uVU-28t-18" value="" style="shape=tableRow;horizontal=0;startSize=0;swimlaneHead=0;swimlaneBody=0;fillColor=none;collapsible=0;dropTarget=0;points=[[0,0.5],[1,0.5]];portConstraint=eastwest;top=0;left=0;right=0;bottom=0;" vertex="1" parent="5fx2fQ4f3zD13uVU-28t-14">
          <mxGeometry y="60" width="180" height="30" as="geometry" />
        </mxCell>
        <mxCell id="5fx2fQ4f3zD13uVU-28t-19" value="" style="shape=partialRectangle;connectable=0;fillColor=none;top=0;left=0;bottom=0;right=0;editable=1;overflow=hidden;whiteSpace=wrap;html=1;" vertex="1" parent="5fx2fQ4f3zD13uVU-28t-18">
          <mxGeometry width="30" height="30" as="geometry">
            <mxRectangle width="30" height="30" as="alternateBounds" />
          </mxGeometry>
        </mxCell>
        <mxCell id="5fx2fQ4f3zD13uVU-28t-20" value="과목명" style="shape=partialRectangle;connectable=0;fillColor=none;top=0;left=0;bottom=0;right=0;align=left;spacingLeft=6;overflow=hidden;whiteSpace=wrap;html=1;" vertex="1" parent="5fx2fQ4f3zD13uVU-28t-18">
          <mxGeometry x="30" width="150" height="30" as="geometry">
            <mxRectangle width="150" height="30" as="alternateBounds" />
          </mxGeometry>
        </mxCell>
        <mxCell id="5fx2fQ4f3zD13uVU-28t-21" value="" style="shape=tableRow;horizontal=0;startSize=0;swimlaneHead=0;swimlaneBody=0;fillColor=none;collapsible=0;dropTarget=0;points=[[0,0.5],[1,0.5]];portConstraint=eastwest;top=0;left=0;right=0;bottom=0;" vertex="1" parent="5fx2fQ4f3zD13uVU-28t-14">
          <mxGeometry y="90" width="180" height="30" as="geometry" />
        </mxCell>
        <mxCell id="5fx2fQ4f3zD13uVU-28t-22" value="" style="shape=partialRectangle;connectable=0;fillColor=none;top=0;left=0;bottom=0;right=0;editable=1;overflow=hidden;whiteSpace=wrap;html=1;" vertex="1" parent="5fx2fQ4f3zD13uVU-28t-21">
          <mxGeometry width="30" height="30" as="geometry">
            <mxRectangle width="30" height="30" as="alternateBounds" />
          </mxGeometry>
        </mxCell>
        <mxCell id="5fx2fQ4f3zD13uVU-28t-23" value="종료일" style="shape=partialRectangle;connectable=0;fillColor=none;top=0;left=0;bottom=0;right=0;align=left;spacingLeft=6;overflow=hidden;whiteSpace=wrap;html=1;" vertex="1" parent="5fx2fQ4f3zD13uVU-28t-21">
          <mxGeometry x="30" width="150" height="30" as="geometry">
            <mxRectangle width="150" height="30" as="alternateBounds" />
          </mxGeometry>
        </mxCell>
        <mxCell id="5fx2fQ4f3zD13uVU-28t-24" value="" style="shape=tableRow;horizontal=0;startSize=0;swimlaneHead=0;swimlaneBody=0;fillColor=none;collapsible=0;dropTarget=0;points=[[0,0.5],[1,0.5]];portConstraint=eastwest;top=0;left=0;right=0;bottom=0;" vertex="1" parent="5fx2fQ4f3zD13uVU-28t-14">
          <mxGeometry y="120" width="180" height="30" as="geometry" />
        </mxCell>
        <mxCell id="5fx2fQ4f3zD13uVU-28t-25" value="" style="shape=partialRectangle;connectable=0;fillColor=none;top=0;left=0;bottom=0;right=0;editable=1;overflow=hidden;whiteSpace=wrap;html=1;" vertex="1" parent="5fx2fQ4f3zD13uVU-28t-24">
          <mxGeometry width="30" height="30" as="geometry">
            <mxRectangle width="30" height="30" as="alternateBounds" />
          </mxGeometry>
        </mxCell>
        <mxCell id="5fx2fQ4f3zD13uVU-28t-26" value="시작일" style="shape=partialRectangle;connectable=0;fillColor=none;top=0;left=0;bottom=0;right=0;align=left;spacingLeft=6;overflow=hidden;whiteSpace=wrap;html=1;" vertex="1" parent="5fx2fQ4f3zD13uVU-28t-24">
          <mxGeometry x="30" width="150" height="30" as="geometry">
            <mxRectangle width="150" height="30" as="alternateBounds" />
          </mxGeometry>
        </mxCell>
        <mxCell id="5fx2fQ4f3zD13uVU-28t-27" value="수강" style="shape=table;startSize=30;container=1;collapsible=1;childLayout=tableLayout;fixedRows=1;rowLines=0;fontStyle=1;align=center;resizeLast=1;html=1;" vertex="1" parent="1">
          <mxGeometry x="460" y="780" width="180" height="90" as="geometry" />
        </mxCell>
        <mxCell id="5fx2fQ4f3zD13uVU-28t-28" value="" style="shape=tableRow;horizontal=0;startSize=0;swimlaneHead=0;swimlaneBody=0;fillColor=none;collapsible=0;dropTarget=0;points=[[0,0.5],[1,0.5]];portConstraint=eastwest;top=0;left=0;right=0;bottom=1;" vertex="1" parent="5fx2fQ4f3zD13uVU-28t-27">
          <mxGeometry y="30" width="180" height="30" as="geometry" />
        </mxCell>
        <mxCell id="5fx2fQ4f3zD13uVU-28t-29" value="PK" style="shape=partialRectangle;connectable=0;fillColor=none;top=0;left=0;bottom=0;right=0;fontStyle=1;overflow=hidden;whiteSpace=wrap;html=1;" vertex="1" parent="5fx2fQ4f3zD13uVU-28t-28">
          <mxGeometry width="30" height="30" as="geometry">
            <mxRectangle width="30" height="30" as="alternateBounds" />
          </mxGeometry>
        </mxCell>
        <mxCell id="5fx2fQ4f3zD13uVU-28t-30" value="수강번호" style="shape=partialRectangle;connectable=0;fillColor=none;top=0;left=0;bottom=0;right=0;align=left;spacingLeft=6;fontStyle=5;overflow=hidden;whiteSpace=wrap;html=1;" vertex="1" parent="5fx2fQ4f3zD13uVU-28t-28">
          <mxGeometry x="30" width="150" height="30" as="geometry">
            <mxRectangle width="150" height="30" as="alternateBounds" />
          </mxGeometry>
        </mxCell>
        <mxCell id="5fx2fQ4f3zD13uVU-28t-31" value="" style="shape=tableRow;horizontal=0;startSize=0;swimlaneHead=0;swimlaneBody=0;fillColor=none;collapsible=0;dropTarget=0;points=[[0,0.5],[1,0.5]];portConstraint=eastwest;top=0;left=0;right=0;bottom=0;" vertex="1" parent="5fx2fQ4f3zD13uVU-28t-27">
          <mxGeometry y="60" width="180" height="30" as="geometry" />
        </mxCell>
        <mxCell id="5fx2fQ4f3zD13uVU-28t-32" value="" style="shape=partialRectangle;connectable=0;fillColor=none;top=0;left=0;bottom=0;right=0;editable=1;overflow=hidden;whiteSpace=wrap;html=1;" vertex="1" parent="5fx2fQ4f3zD13uVU-28t-31">
          <mxGeometry width="30" height="30" as="geometry">
            <mxRectangle width="30" height="30" as="alternateBounds" />
          </mxGeometry>
        </mxCell>
        <mxCell id="5fx2fQ4f3zD13uVU-28t-33" value="수강일자" style="shape=partialRectangle;connectable=0;fillColor=none;top=0;left=0;bottom=0;right=0;align=left;spacingLeft=6;overflow=hidden;whiteSpace=wrap;html=1;" vertex="1" parent="5fx2fQ4f3zD13uVU-28t-31">
          <mxGeometry x="30" width="150" height="30" as="geometry">
            <mxRectangle width="150" height="30" as="alternateBounds" />
          </mxGeometry>
        </mxCell>
        <mxCell id="5fx2fQ4f3zD13uVU-28t-34" value="학생" style="shape=table;startSize=30;container=1;collapsible=1;childLayout=tableLayout;fixedRows=1;rowLines=0;fontStyle=1;align=center;resizeLast=1;html=1;" vertex="1" parent="1">
          <mxGeometry x="200" y="750" width="180" height="150" as="geometry" />
        </mxCell>
        <mxCell id="5fx2fQ4f3zD13uVU-28t-35" value="" style="shape=tableRow;horizontal=0;startSize=0;swimlaneHead=0;swimlaneBody=0;fillColor=none;collapsible=0;dropTarget=0;points=[[0,0.5],[1,0.5]];portConstraint=eastwest;top=0;left=0;right=0;bottom=1;" vertex="1" parent="5fx2fQ4f3zD13uVU-28t-34">
          <mxGeometry y="30" width="180" height="30" as="geometry" />
        </mxCell>
        <mxCell id="5fx2fQ4f3zD13uVU-28t-36" value="PK" style="shape=partialRectangle;connectable=0;fillColor=none;top=0;left=0;bottom=0;right=0;fontStyle=1;overflow=hidden;whiteSpace=wrap;html=1;" vertex="1" parent="5fx2fQ4f3zD13uVU-28t-35">
          <mxGeometry width="30" height="30" as="geometry">
            <mxRectangle width="30" height="30" as="alternateBounds" />
          </mxGeometry>
        </mxCell>
        <mxCell id="5fx2fQ4f3zD13uVU-28t-37" value="학번" style="shape=partialRectangle;connectable=0;fillColor=none;top=0;left=0;bottom=0;right=0;align=left;spacingLeft=6;fontStyle=5;overflow=hidden;whiteSpace=wrap;html=1;" vertex="1" parent="5fx2fQ4f3zD13uVU-28t-35">
          <mxGeometry x="30" width="150" height="30" as="geometry">
            <mxRectangle width="150" height="30" as="alternateBounds" />
          </mxGeometry>
        </mxCell>
        <mxCell id="5fx2fQ4f3zD13uVU-28t-61" value="" style="shape=tableRow;horizontal=0;startSize=0;swimlaneHead=0;swimlaneBody=0;fillColor=none;collapsible=0;dropTarget=0;points=[[0,0.5],[1,0.5]];portConstraint=eastwest;top=0;left=0;right=0;bottom=1;" vertex="1" parent="5fx2fQ4f3zD13uVU-28t-34">
          <mxGeometry y="60" width="180" height="30" as="geometry" />
        </mxCell>
        <mxCell id="5fx2fQ4f3zD13uVU-28t-62" value="FK" style="shape=partialRectangle;connectable=0;fillColor=none;top=0;left=0;bottom=0;right=0;fontStyle=1;overflow=hidden;whiteSpace=wrap;html=1;" vertex="1" parent="5fx2fQ4f3zD13uVU-28t-61">
          <mxGeometry width="30" height="30" as="geometry">
            <mxRectangle width="30" height="30" as="alternateBounds" />
          </mxGeometry>
        </mxCell>
        <mxCell id="5fx2fQ4f3zD13uVU-28t-63" value="학과코드" style="shape=partialRectangle;connectable=0;fillColor=none;top=0;left=0;bottom=0;right=0;align=left;spacingLeft=6;fontStyle=5;overflow=hidden;whiteSpace=wrap;html=1;" vertex="1" parent="5fx2fQ4f3zD13uVU-28t-61">
          <mxGeometry x="30" width="150" height="30" as="geometry">
            <mxRectangle width="150" height="30" as="alternateBounds" />
          </mxGeometry>
        </mxCell>
        <mxCell id="5fx2fQ4f3zD13uVU-28t-38" value="" style="shape=tableRow;horizontal=0;startSize=0;swimlaneHead=0;swimlaneBody=0;fillColor=none;collapsible=0;dropTarget=0;points=[[0,0.5],[1,0.5]];portConstraint=eastwest;top=0;left=0;right=0;bottom=0;" vertex="1" parent="5fx2fQ4f3zD13uVU-28t-34">
          <mxGeometry y="90" width="180" height="30" as="geometry" />
        </mxCell>
        <mxCell id="5fx2fQ4f3zD13uVU-28t-39" value="" style="shape=partialRectangle;connectable=0;fillColor=none;top=0;left=0;bottom=0;right=0;editable=1;overflow=hidden;whiteSpace=wrap;html=1;" vertex="1" parent="5fx2fQ4f3zD13uVU-28t-38">
          <mxGeometry width="30" height="30" as="geometry">
            <mxRectangle width="30" height="30" as="alternateBounds" />
          </mxGeometry>
        </mxCell>
        <mxCell id="5fx2fQ4f3zD13uVU-28t-40" value="이름" style="shape=partialRectangle;connectable=0;fillColor=none;top=0;left=0;bottom=0;right=0;align=left;spacingLeft=6;overflow=hidden;whiteSpace=wrap;html=1;" vertex="1" parent="5fx2fQ4f3zD13uVU-28t-38">
          <mxGeometry x="30" width="150" height="30" as="geometry">
            <mxRectangle width="150" height="30" as="alternateBounds" />
          </mxGeometry>
        </mxCell>
        <mxCell id="5fx2fQ4f3zD13uVU-28t-41" value="" style="shape=tableRow;horizontal=0;startSize=0;swimlaneHead=0;swimlaneBody=0;fillColor=none;collapsible=0;dropTarget=0;points=[[0,0.5],[1,0.5]];portConstraint=eastwest;top=0;left=0;right=0;bottom=0;" vertex="1" parent="5fx2fQ4f3zD13uVU-28t-34">
          <mxGeometry y="120" width="180" height="30" as="geometry" />
        </mxCell>
        <mxCell id="5fx2fQ4f3zD13uVU-28t-42" value="" style="shape=partialRectangle;connectable=0;fillColor=none;top=0;left=0;bottom=0;right=0;editable=1;overflow=hidden;whiteSpace=wrap;html=1;" vertex="1" parent="5fx2fQ4f3zD13uVU-28t-41">
          <mxGeometry width="30" height="30" as="geometry">
            <mxRectangle width="30" height="30" as="alternateBounds" />
          </mxGeometry>
        </mxCell>
        <mxCell id="5fx2fQ4f3zD13uVU-28t-43" value="키" style="shape=partialRectangle;connectable=0;fillColor=none;top=0;left=0;bottom=0;right=0;align=left;spacingLeft=6;overflow=hidden;whiteSpace=wrap;html=1;" vertex="1" parent="5fx2fQ4f3zD13uVU-28t-41">
          <mxGeometry x="30" width="150" height="30" as="geometry">
            <mxRectangle width="150" height="30" as="alternateBounds" />
          </mxGeometry>
        </mxCell>
        <mxCell id="5fx2fQ4f3zD13uVU-28t-47" value="교수" style="shape=table;startSize=30;container=1;collapsible=1;childLayout=tableLayout;fixedRows=1;rowLines=0;fontStyle=1;align=center;resizeLast=1;html=1;" vertex="1" parent="1">
          <mxGeometry x="750" y="980" width="180" height="120" as="geometry" />
        </mxCell>
        <mxCell id="5fx2fQ4f3zD13uVU-28t-48" value="" style="shape=tableRow;horizontal=0;startSize=0;swimlaneHead=0;swimlaneBody=0;fillColor=none;collapsible=0;dropTarget=0;points=[[0,0.5],[1,0.5]];portConstraint=eastwest;top=0;left=0;right=0;bottom=1;" vertex="1" parent="5fx2fQ4f3zD13uVU-28t-47">
          <mxGeometry y="30" width="180" height="30" as="geometry" />
        </mxCell>
        <mxCell id="5fx2fQ4f3zD13uVU-28t-49" value="PK" style="shape=partialRectangle;connectable=0;fillColor=none;top=0;left=0;bottom=0;right=0;fontStyle=1;overflow=hidden;whiteSpace=wrap;html=1;" vertex="1" parent="5fx2fQ4f3zD13uVU-28t-48">
          <mxGeometry width="30" height="30" as="geometry">
            <mxRectangle width="30" height="30" as="alternateBounds" />
          </mxGeometry>
        </mxCell>
        <mxCell id="5fx2fQ4f3zD13uVU-28t-50" value="교수코드" style="shape=partialRectangle;connectable=0;fillColor=none;top=0;left=0;bottom=0;right=0;align=left;spacingLeft=6;fontStyle=5;overflow=hidden;whiteSpace=wrap;html=1;" vertex="1" parent="5fx2fQ4f3zD13uVU-28t-48">
          <mxGeometry x="30" width="150" height="30" as="geometry">
            <mxRectangle width="150" height="30" as="alternateBounds" />
          </mxGeometry>
        </mxCell>
        <mxCell id="5fx2fQ4f3zD13uVU-28t-51" value="" style="shape=tableRow;horizontal=0;startSize=0;swimlaneHead=0;swimlaneBody=0;fillColor=none;collapsible=0;dropTarget=0;points=[[0,0.5],[1,0.5]];portConstraint=eastwest;top=0;left=0;right=0;bottom=0;" vertex="1" parent="5fx2fQ4f3zD13uVU-28t-47">
          <mxGeometry y="60" width="180" height="30" as="geometry" />
        </mxCell>
        <mxCell id="5fx2fQ4f3zD13uVU-28t-52" value="FK" style="shape=partialRectangle;connectable=0;fillColor=none;top=0;left=0;bottom=0;right=0;editable=1;overflow=hidden;whiteSpace=wrap;html=1;fontStyle=1" vertex="1" parent="5fx2fQ4f3zD13uVU-28t-51">
          <mxGeometry width="30" height="30" as="geometry">
            <mxRectangle width="30" height="30" as="alternateBounds" />
          </mxGeometry>
        </mxCell>
        <mxCell id="5fx2fQ4f3zD13uVU-28t-53" value="&lt;u&gt;학과코드&lt;/u&gt;" style="shape=partialRectangle;connectable=0;fillColor=none;top=0;left=0;bottom=0;right=0;align=left;spacingLeft=6;overflow=hidden;whiteSpace=wrap;html=1;" vertex="1" parent="5fx2fQ4f3zD13uVU-28t-51">
          <mxGeometry x="30" width="150" height="30" as="geometry">
            <mxRectangle width="150" height="30" as="alternateBounds" />
          </mxGeometry>
        </mxCell>
        <mxCell id="5fx2fQ4f3zD13uVU-28t-54" value="" style="shape=tableRow;horizontal=0;startSize=0;swimlaneHead=0;swimlaneBody=0;fillColor=none;collapsible=0;dropTarget=0;points=[[0,0.5],[1,0.5]];portConstraint=eastwest;top=0;left=0;right=0;bottom=0;" vertex="1" parent="5fx2fQ4f3zD13uVU-28t-47">
          <mxGeometry y="90" width="180" height="30" as="geometry" />
        </mxCell>
        <mxCell id="5fx2fQ4f3zD13uVU-28t-55" value="" style="shape=partialRectangle;connectable=0;fillColor=none;top=0;left=0;bottom=0;right=0;editable=1;overflow=hidden;whiteSpace=wrap;html=1;" vertex="1" parent="5fx2fQ4f3zD13uVU-28t-54">
          <mxGeometry width="30" height="30" as="geometry">
            <mxRectangle width="30" height="30" as="alternateBounds" />
          </mxGeometry>
        </mxCell>
        <mxCell id="5fx2fQ4f3zD13uVU-28t-56" value="교수명" style="shape=partialRectangle;connectable=0;fillColor=none;top=0;left=0;bottom=0;right=0;align=left;spacingLeft=6;overflow=hidden;whiteSpace=wrap;html=1;" vertex="1" parent="5fx2fQ4f3zD13uVU-28t-54">
          <mxGeometry x="30" width="150" height="30" as="geometry">
            <mxRectangle width="150" height="30" as="alternateBounds" />
          </mxGeometry>
        </mxCell>
      </root>
    </mxGraphModel>
  </diagram>
  <diagram id="CLLsSH_EPhE8CeWA1LNn" name="논리적모델링">
    <mxGraphModel dx="1434" dy="746" grid="1" gridSize="10" guides="1" tooltips="1" connect="1" arrows="1" fold="1" page="1" pageScale="1" pageWidth="827" pageHeight="1169" math="0" shadow="0">
      <root>
        <mxCell id="0" />
        <mxCell id="1" parent="0" />
      </root>
    </mxGraphModel>
  </diagram>
</mxfile>
